<svg width="22" height="18" viewBox="0 0 22 18" fill="none" xmlns="http://www.w3.org/2000/svg">
<path d="M16.5 0.975708C14.55 0.975708 12.45 1.37328 11 2.46661C9.55 1.37328 7.45 0.975708 5.5 0.975708C4.05 0.975708 2.51 1.19437 1.22 1.76092C0.49 2.08892 0 2.79461 0 3.5997V14.8113C0 16.1034 1.22 17.0576 2.48 16.7395C3.46 16.4911 4.5 16.3817 5.5 16.3817C7.06 16.3817 8.72 16.6401 10.06 17.2961C10.66 17.5943 11.34 17.5943 11.93 17.2961C13.27 16.6302 14.93 16.3817 16.49 16.3817C17.49 16.3817 18.53 16.4911 19.51 16.7395C20.77 17.0675 21.99 16.1134 21.99 14.8113V3.5997C21.99 2.79461 21.5 2.08892 20.77 1.76092C19.49 1.19437 17.95 0.975708 16.5 0.975708ZM20 13.6285C20 14.2547 19.42 14.7119 18.8 14.6026C18.05 14.4634 17.27 14.4038 16.5 14.4038C14.8 14.4038 12.35 15.0498 11 15.8947V4.45448C12.35 3.60964 14.8 2.96358 16.5 2.96358C17.42 2.96358 18.33 3.05303 19.2 3.24188C19.66 3.34128 20 3.74879 20 4.21594V13.6285Z" fill="#083AB8"/>
</svg>
