<svg width="200" height="38" viewBox="0 0 200 38" fill="none" xmlns="http://www.w3.org/2000/svg">
<path d="M17.832 19.384C20.04 19.8 21.832 20.616 23.208 21.832C24.616 23.048 25.32 24.872 25.32 27.304C25.32 30.856 24.04 33.368 21.48 34.84C18.952 36.28 15.4 37 10.824 37H0.119995V3.736H9.528C14.2 3.736 17.768 4.408 20.232 5.752C22.696 7.064 23.928 9.224 23.928 12.232C23.928 14.184 23.336 15.768 22.152 16.984C21 18.168 19.56 18.968 17.832 19.384ZM7.992 9.304V17.032H10.92C14.248 17.032 15.912 15.688 15.912 13C15.912 11.656 15.464 10.712 14.568 10.168C13.672 9.592 12.248 9.304 10.296 9.304H7.992ZM10.872 31.288C12.952 31.288 14.52 30.984 15.576 30.376C16.664 29.736 17.208 28.568 17.208 26.872C17.208 23.8 15.288 22.264 11.448 22.264H7.992V31.288H10.872Z" fill="#141414"/>
<path d="M51.825 23.752C51.825 24.808 51.777 25.72 51.681 26.488H35.889C36.145 28.632 36.753 30.136 37.713 31C38.673 31.864 40.001 32.296 41.697 32.296C42.721 32.296 43.713 32.12 44.673 31.768C45.633 31.384 46.673 30.808 47.793 30.04L50.913 34.264C47.937 36.632 44.625 37.816 40.977 37.816C36.849 37.816 33.681 36.6 31.473 34.168C29.265 31.736 28.161 28.472 28.161 24.376C28.161 21.784 28.625 19.464 29.553 17.416C30.481 15.336 31.841 13.704 33.633 12.52C35.425 11.304 37.569 10.696 40.065 10.696C43.745 10.696 46.625 11.848 48.705 14.152C50.785 16.456 51.825 19.656 51.825 23.752ZM44.385 21.592C44.321 17.688 42.945 15.736 40.257 15.736C38.945 15.736 37.921 16.216 37.185 17.176C36.481 18.136 36.049 19.72 35.889 21.928H44.385V21.592Z" fill="#141414"/>
<path d="M69.9094 10.792C70.8374 10.792 71.6854 10.904 72.4534 11.128L71.2534 18.472C70.2934 18.248 69.5254 18.136 68.9494 18.136C67.4454 18.136 66.2934 18.664 65.4934 19.72C64.7254 20.744 64.1174 22.296 63.6694 24.376V37H56.0854V11.512H62.7094L63.3334 16.456C63.9094 14.696 64.7734 13.32 65.9254 12.328C67.1094 11.304 68.4374 10.792 69.9094 10.792Z" fill="#141414"/>
<path d="M90.279 10.696C92.487 10.696 94.215 11.368 95.463 12.712C96.711 14.056 97.335 15.944 97.335 18.376V37H89.751V19.672C89.751 18.392 89.543 17.512 89.127 17.032C88.743 16.52 88.151 16.264 87.351 16.264C85.815 16.264 84.343 17.368 82.935 19.576V37H75.351V11.512H81.975L82.503 14.536C83.591 13.256 84.759 12.296 86.007 11.656C87.287 11.016 88.711 10.696 90.279 10.696Z" fill="#141414"/>
<path d="M123.31 29.608C123.31 30.568 123.438 31.272 123.694 31.72C123.982 32.168 124.43 32.504 125.038 32.728L123.454 37.672C121.886 37.544 120.606 37.208 119.614 36.664C118.622 36.088 117.854 35.192 117.31 33.976C115.646 36.536 113.086 37.816 109.63 37.816C107.102 37.816 105.086 37.08 103.582 35.608C102.078 34.136 101.326 32.216 101.326 29.848C101.326 27.064 102.35 24.936 104.398 23.464C106.446 21.992 109.406 21.256 113.278 21.256H115.87V20.152C115.87 18.648 115.55 17.624 114.91 17.08C114.27 16.504 113.15 16.216 111.55 16.216C110.718 16.216 109.71 16.344 108.526 16.6C107.342 16.824 106.126 17.144 104.878 17.56L103.15 12.568C104.75 11.96 106.382 11.496 108.046 11.176C109.742 10.856 111.31 10.696 112.75 10.696C116.398 10.696 119.07 11.448 120.766 12.952C122.462 14.456 123.31 16.712 123.31 19.72V29.608ZM111.838 32.392C113.566 32.392 114.91 31.576 115.87 29.944V25.432H113.998C112.27 25.432 110.974 25.736 110.11 26.344C109.278 26.952 108.862 27.896 108.862 29.176C108.862 30.2 109.118 31 109.63 31.576C110.174 32.12 110.91 32.392 111.838 32.392Z" fill="#141414"/>
<path d="M143.175 10.792C144.103 10.792 144.951 10.904 145.719 11.128L144.519 18.472C143.559 18.248 142.791 18.136 142.215 18.136C140.711 18.136 139.559 18.664 138.759 19.72C137.991 20.744 137.383 22.296 136.935 24.376V37H129.351V11.512H135.975L136.599 16.456C137.175 14.696 138.039 13.32 139.191 12.328C140.375 11.304 141.703 10.792 143.175 10.792Z" fill="#141414"/>
<path d="M170.011 1.38399V37H163.292L162.908 34.024C161.116 36.552 158.7 37.816 155.66 37.816C152.491 37.816 150.075 36.6 148.411 34.168C146.779 31.736 145.964 28.408 145.964 24.184C145.964 21.592 146.395 19.272 147.259 17.224C148.123 15.176 149.34 13.576 150.908 12.424C152.508 11.272 154.332 10.696 156.38 10.696C158.812 10.696 160.827 11.496 162.427 13.096V0.567993L170.011 1.38399ZM158.011 32.248C159.771 32.248 161.243 31.288 162.427 29.368V18.376C161.819 17.64 161.195 17.096 160.555 16.744C159.947 16.392 159.243 16.216 158.443 16.216C157.035 16.216 155.915 16.872 155.083 18.184C154.251 19.496 153.835 21.512 153.835 24.232C153.835 27.208 154.187 29.288 154.891 30.472C155.627 31.656 156.667 32.248 158.011 32.248Z" fill="#141414"/>
<path d="M186.985 10.696C190.889 10.696 193.945 11.896 196.153 14.296C198.361 16.664 199.465 19.992 199.465 24.28C199.465 27 198.953 29.384 197.929 31.432C196.937 33.448 195.497 35.016 193.609 36.136C191.753 37.256 189.545 37.816 186.985 37.816C183.113 37.816 180.057 36.632 177.817 34.264C175.609 31.864 174.505 28.52 174.505 24.232C174.505 21.512 175.001 19.144 175.993 17.128C177.017 15.08 178.457 13.496 180.313 12.376C182.201 11.256 184.425 10.696 186.985 10.696ZM186.985 16.264C185.449 16.264 184.297 16.92 183.529 18.232C182.761 19.512 182.377 21.512 182.377 24.232C182.377 27.016 182.745 29.048 183.481 30.328C184.249 31.608 185.417 32.248 186.985 32.248C188.521 32.248 189.673 31.608 190.441 30.328C191.209 29.016 191.593 27 191.593 24.28C191.593 21.496 191.209 19.464 190.441 18.184C189.705 16.904 188.553 16.264 186.985 16.264Z" fill="#141414"/>
</svg>
